<!-- icon666.com - MILLIONS vector ICONS FREE --><svg viewBox="0 0 64 64" xmlns="http://www.w3.org/2000/svg" xmlns:xlink="http://www.w3.org/1999/xlink"><linearGradient id="linear-gradient" gradientUnits="userSpaceOnUse" x1="11.13" x2="52.87" y1="38.94" y2="38.94"><stop offset="0" stop-color="#5bb4f6"></stop><stop offset=".61" stop-color="#2191e5"></stop><stop offset="1" stop-color="#007edb"></stop></linearGradient><linearGradient id="linear-gradient-2" x1="3.5" x2="60.5" xlink:href="#linear-gradient" y1="32" y2="32"></linearGradient><g id="Layer_62" data-name="Layer 62"><path d="m31.73 44-20.6-13.43v1.85l20.87 14.9 20.87-14.9v-1.85l-20.6 13.43a.48.48 0 0 1 -.54 0z" fill="url(#linear-gradient)" style="fill: rgb(125, 125, 125);"></path><path d="m50 3.5h-36a10.51 10.51 0 0 0 -10.5 10.5v36a10.51 10.51 0 0 0 10.5 10.5h36a10.51 10.51 0 0 0 10.5-10.5v-36a10.51 10.51 0 0 0 -10.5-10.5zm6.43 30.5a.49.49 0 0 1 -.21.41l-23.93 17.08a.47.47 0 0 1 -.58 0l-23.93-17.09a.49.49 0 0 1 -.21-.4v-9.09a.51.51 0 0 1 .26-.44.52.52 0 0 1 .51 0l23.66 15.44 23.66-15.42a.52.52 0 0 1 .51 0 .51.51 0 0 1 .26.44z" fill="url(#linear-gradient-2)" style="fill: rgb(125, 125, 125);"></path></g></svg>